<?xml version="1.0" encoding="UTF-8" standalone="no"?>
<!-- (c) ammap.com | SVG map of World High -->

<svg
   xmlns:dc="http://purl.org/dc/elements/1.1/"
   xmlns:cc="http://creativecommons.org/ns#"
   xmlns:rdf="http://www.w3.org/1999/02/22-rdf-syntax-ns#"
   xmlns:svg="http://www.w3.org/2000/svg"
   xmlns="http://www.w3.org/2000/svg"
   xmlns:sodipodi="http://sodipodi.sourceforge.net/DTD/sodipodi-0.dtd"
   xmlns:inkscape="http://www.inkscape.org/namespaces/inkscape"
   version="1.1"
   id="svg2"
   inkscape:version="0.91 r13725"
   sodipodi:docname="worldHigh.svg"
   viewBox="0 0 1103.952 1043.921"
   preserveAspectRatio="xMidYMid meet">
  <metadata
     id="metadata15">
    <rdf:RDF>
      <cc:Work
         rdf:about="">
        <dc:format>image/svg+xml</dc:format>
        <dc:type
           rdf:resource="http://purl.org/dc/dcmitype/StillImage" />
        <dc:title></dc:title>
      </cc:Work>
    </rdf:RDF>
  </metadata>
  <sodipodi:namedview
     pagecolor="#ffffff"
     bordercolor="#666666"
     borderopacity="1"
     objecttolerance="10"
     gridtolerance="10"
     guidetolerance="10"
     inkscape:pageopacity="0"
     inkscape:pageshadow="2"
     inkscape:window-width="1254"
     inkscape:window-height="963"
     id="namedview13"
     showgrid="false"
     fit-margin-top="0"
     fit-margin-left="0"
     fit-margin-right="0"
     fit-margin-bottom="0"
     inkscape:zoom="0.36"
     inkscape:cx="604.88836"
     inkscape:cy="219.15445"
     inkscape:window-x="12"
     inkscape:window-y="48"
     inkscape:window-maximized="0"
     inkscape:current-layer="svg2" />
  <defs
     id="defs4">
    <style
       type="text/css"
       id="style6">
			.land
			{
				fill: #CCCCCC;
				fill-opacity: 1;
				stroke:white;
				stroke-opacity: 1;
				stroke-width:0.5;
			}
			.land:hover {
				fill: #337ab7;
			}
		</style>
    <!-- All areas are listed in the line below. You can use this list in your script. -->
    <!--{id:"AD"},{id:"AE"},{id:"AF"},{id:"AG"},{id:"AI"},{id:"AL"},{id:"AM"},{id:"AO"},{id:"AR"},{id:"AS"},{id:"AT"},{id:"AU"},{id:"AW"},{id:"AX"},{id:"AZ"},{id:"BA"},{id:"BB"},{id:"BD"},{id:"BE"},{id:"BF"},{id:"BG"},{id:"BH"},{id:"BI"},{id:"BJ"},{id:"BL"},{id:"BN"},{id:"BO"},{id:"BM"},{id:"BQ"},{id:"BR"},{id:"BS"},{id:"BT"},{id:"BV"},{id:"BW"},{id:"BY"},{id:"BZ"},{id:"CA"},{id:"CC"},{id:"CD"},{id:"CF"},{id:"CG"},{id:"CH"},{id:"CI"},{id:"CK"},{id:"CL"},{id:"CM"},{id:"CN"},{id:"CO"},{id:"CR"},{id:"CU"},{id:"CV"},{id:"CW"},{id:"CX"},{id:"CY"},{id:"CZ"},{id:"DE"},{id:"DJ"},{id:"DK"},{id:"DM"},{id:"DO"},{id:"DZ"},{id:"EC"},{id:"EG"},{id:"EE"},{id:"EH"},{id:"ER"},{id:"ES"},{id:"ET"},{id:"FI"},{id:"FJ"},{id:"FK"},{id:"FM"},{id:"FO"},{id:"FR"},{id:"GA"},{id:"GB"},{id:"GE"},{id:"GD"},{id:"GF"},{id:"GG"},{id:"GH"},{id:"GI"},{id:"GL"},{id:"GM"},{id:"GN"},{id:"GO"},{id:"GP"},{id:"GQ"},{id:"GR"},{id:"GS"},{id:"GT"},{id:"GU"},{id:"GW"},{id:"GY"},{id:"HK"},{id:"HM"},{id:"HN"},{id:"HR"},{id:"HT"},{id:"HU"},{id:"ID"},{id:"IE"},{id:"IL"},{id:"IM"},{id:"IN"},{id:"IO"},{id:"IQ"},{id:"IR"},{id:"IS"},{id:"IT"},{id:"JE"},{id:"JM"},{id:"JO"},{id:"JP"},{id:"JU"},{id:"KE"},{id:"KG"},{id:"KH"},{id:"KI"},{id:"KM"},{id:"KN"},{id:"KP"},{id:"KR"},{id:"XK"},{id:"KW"},{id:"KY"},{id:"KZ"},{id:"LA"},{id:"LB"},{id:"LC"},{id:"LI"},{id:"LK"},{id:"LR"},{id:"LS"},{id:"LT"},{id:"LU"},{id:"LV"},{id:"LY"},{id:"MA"},{id:"MC"},{id:"MD"},{id:"MG"},{id:"ME"},{id:"MF"},{id:"MH"},{id:"MK"},{id:"ML"},{id:"MO"},{id:"MM"},{id:"MN"},{id:"MP"},{id:"MQ"},{id:"MR"},{id:"MS"},{id:"MT"},{id:"MU"},{id:"MV"},{id:"MW"},{id:"MX"},{id:"MY"},{id:"MZ"},{id:"NA"},{id:"NC"},{id:"NE"},{id:"NF"},{id:"NG"},{id:"NI"},{id:"NL"},{id:"NO"},{id:"NP"},{id:"NR"},{id:"NU"},{id:"NZ"},{id:"OM"},{id:"PA"},{id:"PE"},{id:"PF"},{id:"PG"},{id:"PH"},{id:"PK"},{id:"PL"},{id:"PM"},{id:"PN"},{id:"PR"},{id:"PS"},{id:"PT"},{id:"PW"},{id:"PY"},{id:"QA"},{id:"RE"},{id:"RO"},{id:"RS"},{id:"RU"},{id:"RW"},{id:"SA"},{id:"SB"},{id:"SC"},{id:"SD"},{id:"SE"},{id:"SG"},{id:"SH"},{id:"SI"},{id:"SJ"},{id:"SK"},{id:"SL"},{id:"SM"},{id:"SN"},{id:"SO"},{id:"SR"},{id:"SS"},{id:"ST"},{id:"SV"},{id:"SX"},{id:"SY"},{id:"SZ"},{id:"TC"},{id:"TD"},{id:"TF"},{id:"TG"},{id:"TH"},{id:"TJ"},{id:"TK"},{id:"TL"},{id:"TM"},{id:"TN"},{id:"TO"},{id:"TR"},{id:"TT"},{id:"TV"},{id:"TW"},{id:"TZ"},{id:"UA"},{id:"UG"},{id:"UM-DQ"},{id:"UM-FQ"},{id:"UM-HQ"},{id:"UM-JQ"},{id:"UM-MQ"},{id:"UM-WQ"},{id:"US"},{id:"UY"},{id:"UZ"},{id:"VA"},{id:"VC"},{id:"VE"},{id:"VG"},{id:"VI"},{id:"VN"},{id:"VU"},{id:"WF"},{id:"WS"},{id:"YE"},{id:"YT"},{id:"ZA"},{id:"ZM"},{id:"ZW"}-->
  </defs>
  <g
     id="g8"
     transform="matrix(10.61984,0,0,10.61984,-6851.8436,-3674.4276)">
    <path
       id="AF"
       title="Afghanistan"
       class="land"
       d="m 685.881,350.592 -0.144,0.023 -0.204,-0.084 -0.08,-0.128 -0.034,-0.018 -0.162,0.084 -0.309,0.106 -0.524,0.277 0.012,0.071 0.341,0.281 0.08,0.093 0.042,0.029 -0.309,0.135 -0.664,0.304 -0.437,0.248 -0.104,0.009 -0.264,-0.104 -0.39,-0.124 -0.104,0.002 -0.9,0.021 -0.827,0.046 -0.344,0.06 -0.639,0.057 -0.402,0.02 -0.257,0.096 -0.281,0.126 -0.292,0.082 -0.217,0.027 -0.261,0.118 -0.172,0.234 -0.491,0.346 -0.276,0.167 -0.139,0.189 -0.158,0.018 -0.27,-0.034 -0.209,0.204 -0.231,0.292 -0.423,0.423 -0.225,0.171 -0.134,0.276 0.099,0.143 0.344,0.214 0.154,0.202 0.084,0.16 0.157,0.41 0.1,0.403 0.148,0.174 0.043,0.295 0.038,0.181 -0.081,0.129 -0.074,0.143 0,0.136 0.089,0.14 0.078,0.124 0.043,0.099 -0.053,0.11 -0.157,0.168 -0.08,0.172 -0.174,0.287 -0.272,0.196 -0.18,0.142 -0.191,0.3 -0.316,0.333 -0.133,0.278 -0.139,0.153 -0.143,0.082 0.037,0.15 0.124,0.187 0.205,0.209 -0.009,0.325 -0.01,0.234 0.007,0.283 -0.112,0.238 -0.57,0.228 -0.546,0.1 -0.669,0.006 -0.253,-0.036 -0.202,-0.05 -0.726,-0.256 -0.295,0.151 -0.061,0.369 0.53,0.598 0.217,0.333 0.241,0.556 0.18,0.286 -0.064,0.268 -0.48,0.304 -0.477,0.285 -0.608,0.059 -0.382,0.102 -0.185,0.147 -0.136,0.623 -0.137,0.228 0.003,0.271 -0.129,0.307 -0.195,0.197 -0.137,0.322 0.043,0.609 0.064,1.03 -0.259,0.324 -0.292,0.328 -0.308,0.234 -0.293,0.108 -0.243,-0.04 -0.192,-0.202 -0.114,-0.17 -0.212,-0.142 -0.216,0.029 -0.217,0.13 -0.347,-0.043 -0.296,-0.13 -0.15,0.014 -0.086,0.131 -0.317,0.28 -0.778,0.425 -0.318,0.031 -0.136,0.106 0.054,0.174 0.139,0.142 0.243,0.1 0.012,0.116 -0.214,0.101 -0.183,0.115 -0.403,0.141 -0.465,0.055 -0.48,-0.082 -0.247,-0.187 -0.292,-0.018 -0.266,0.137 -0.275,0.226 -0.3,0.484 -0.08,0.085 -0.081,0.077 -0.196,0.104 -0.281,0.17 -0.141,0.356 -0.169,0.633 0.04,0.34 0.013,0.589 -0.066,0.413 -0.122,0.271 0.024,0.213 0.186,0.242 -0.075,0.157 -0.156,0.174 -0.151,0.097 -0.605,0.183 -0.829,0.249 -0.548,0.16 -0.815,0.238 -0.238,0.058 -0.496,0.021 -0.257,-0.036 -0.348,-0.01 -0.512,0.009 -0.357,0.065 -0.358,0.119 -0.264,0.15 -0.152,0.148 -0.054,0.071 -0.359,-0.122 -1.131,-0.218 -3.063,0.288 -0.289,-0.055 -1.045,-0.337 -1.347,-0.434 -0.833,-0.269 -1.069,-0.352 0.732,-0.87 0.638,-0.76 0.64,-0.764 0.63,-0.755 0.075,-0.265 0.01,-0.519 -0.166,-0.695 -0.267,-0.317 -0.881,-0.128 -0.661,-0.097 -0.721,-0.105 -0.092,-0.039 -0.082,-0.543 0.035,-0.242 -0.047,-0.469 0.007,-0.362 0.104,-0.595 0.006,-0.269 -0.333,-1.161 -0.186,-0.645 -0.19,-0.667 -0.041,-0.213 -0.004,-0.263 0.442,-0.62 0.137,-0.135 0.259,-0.309 0.162,-0.165 -0.028,-0.113 -0.282,-0.065 -0.426,-0.006 -0.227,-0.094 -0.177,-0.169 -0.07,-0.246 0.116,-0.437 -0.116,-0.851 0.237,-0.422 0.204,-0.295 0.692,-0.042 -0.24,-0.334 -0.116,-0.194 -0.074,-0.056 -0.028,-0.089 0.037,-0.09 0.177,-0.034 0.12,-0.112 0.195,-0.157 0.102,-0.068 0.018,-0.191 0.093,-0.134 0.14,-0.169 0.111,-0.192 -0.028,-0.225 0.102,-0.27 0.047,-0.17 0.074,-0.147 -0.065,-0.214 -0.056,-0.181 -0.018,-0.215 0.111,-0.057 0.14,-0.079 0.027,-0.17 0.074,-0.215 0.056,-0.171 0.093,-0.135 0.01,-0.137 -0.056,-0.227 0.231,-0.034 0.093,0.125 0.124,0.162 0.339,0.302 0.22,0.088 0.277,0.044 0.341,-0.041 0.272,-0.057 0.128,0.015 0.297,0.219 0.347,0.307 0.111,0.137 0.052,0.209 0.102,0.062 0.222,-0.207 0.214,-0.068 0.197,0.039 0.217,0.023 0.218,-0.076 0.097,-0.055 0.379,-0.268 0.344,-0.204 0.214,-0.125 0.077,-0.42 0.099,-0.239 0.141,-0.139 -0.052,-0.173 -0.059,-0.132 -0.06,-0.179 0.06,-0.095 0.137,-0.042 0.344,0 0.605,-0.189 0.504,-0.189 0.466,-0.154 0.212,-0.025 0.201,0.026 0.092,-0.045 0.025,-0.147 0.114,-0.155 0.259,-0.126 0.487,-0.267 0.43,-0.397 0.153,-0.302 0.104,-0.441 0.201,-0.682 0.222,-0.749 0.082,-0.331 0.094,-0.255 0.38,-0.215 0.388,-0.156 0.601,-0.031 0.705,-0.016 0.149,-0.411 0.093,-0.35 0.117,-0.181 0.171,-0.147 0.06,-0.029 0.38,0.215 0.583,0.329 0.679,0.164 0.341,0.082 0.142,-0.013 0.857,-0.08 0.677,0.128 0.355,0.35 0.349,0.089 0.342,-0.169 0.212,-0.031 0.082,0.109 0.17,0.046 0.26,-0.017 0.15,0.097 0.016,0.097 0.02,0.112 0.192,0.266 0.347,0.323 0.308,0.078 0.405,-0.251 0.137,0.029 0.067,-0.081 0.041,-0.183 0.245,-0.172 0.448,-0.161 0.254,-0.144 0.091,-0.119 0.151,-0.034 0.165,0.036 0.118,-0.045 0.041,-0.113 0.047,-0.049 0.084,-0.04 0.075,-0.02 0.136,0.031 0.251,0.206 0.366,0.38 0.238,0.174 0.109,-0.029 0.14,-0.117 0.171,-0.202 0.042,-0.292 -0.085,-0.381 0.058,-0.308 0.203,-0.234 0.375,-0.144 0.547,-0.055 0.336,0.033 0.124,0.121 0.168,0.066 0.211,0.013 0.194,-0.137 0.175,-0.289 0.01,-0.357 -0.155,-0.427 0.042,-0.136 0.067,-0.059 0.21,-0.155 0.293,-0.321 0.283,-0.414 0.273,-0.508 0.337,-0.314 0.401,-0.121 0.486,0.138 0.573,0.396 0.215,0.486 -0.14,0.577 -0.012,0.316 0.116,0.059 0.196,-0.016 0.275,-0.09 0.18,-0.005 0.085,0.082 -0.005,0.162 -0.096,0.243 -0.115,0.681 -0.071,0.588 -0.071,0.577 -0.061,0.506 0.109,0.394 0.166,0.594 0.187,0.392 0.191,0.125 0.192,0.045 0.191,-0.035 0.393,-0.252 0.593,-0.468 0.576,-0.288 0.838,-0.162 0.281,-0.503 0.388,-0.333 0.886,-0.495 0.481,-0.19 0.277,-0.032 0.346,0.089 0.079,0.032 0.068,0.024 0.179,0.041 0.037,0.151 -0.047,0.163 -0.191,0.134 -0.061,0.104 0.073,0.078 0.27,0.027 0.559,-0.181 0.362,-0.116 0.251,-0.046 0.101,-0.151 0.158,-0.152 0.251,-0.011 0.269,0.081 0.223,0.047 0.379,-0.043 0.2,0.132 0.28,0.249 0.126,0.155 z" />
    <path
       id="PK"
       title="Pakistan"
       class="land"
       d="m 685.74,351.477 0.135,0.093 0.168,-0.055 0.295,-0.066 0.256,0.049 0.565,0.209 0.085,0.104 0.133,0.507 0.101,0.046 0.318,-0.119 0.263,0.06 0.295,0.164 0.19,0.158 0.126,0.17 0.135,0.276 0.052,0.22 0.064,0.263 -0.017,0.74 -0.096,0.121 -0.082,0.157 0.02,0.137 0.093,0.108 0.183,0.074 0.169,0.046 0.091,0.117 0.125,0.414 0.084,0.064 0.208,-0.002 0.376,-0.09 0.326,-0.142 0.139,-0.03 0.034,0.393 0.192,0.15 0.268,0.175 0.111,0.058 0.314,0.166 0.593,0.211 0.575,0.151 0.426,0.112 0.206,0.007 0.147,0.005 0.425,-0.03 0.212,-0.052 -0.288,0.18 -0.352,0.222 -0.416,0.26 -0.366,0.23 -0.35,0.219 -0.335,0.21 -0.051,0.163 -0.083,0.239 -0.307,0.182 -0.306,0.131 -0.071,0.077 -0.023,0.103 -0.148,0.206 -0.286,0.174 -0.237,-0.017 -0.15,-0.052 -0.797,0.3 -0.37,-0.007 -0.288,0.194 -0.214,0.178 -0.428,0.194 -0.291,10e-4 -0.43,-0.115 -0.529,-0.22 -0.214,-0.127 -0.194,0.007 -0.468,-0.03 -0.458,-0.109 -0.546,-0.129 -0.27,-0.055 -0.554,-0.114 -0.361,0.152 -0.326,0.136 -0.265,0.093 -0.219,0.422 -0.093,0.149 -0.106,0.212 -0.05,0.15 0.044,0.179 0.321,0.126 0.134,0.174 0.02,0.153 -0.116,0.157 -0.097,0.124 10e-4,0.109 0.052,0.11 0.077,0.082 0.456,0.051 0.271,10e-4 0.105,0.044 0.013,0.149 -0.1,0.2 -0.384,0.161 -0.217,0.17 -0.07,0.225 0.003,0.179 0.075,0.119 0.184,0.137 0.173,0.156 0.053,0.127 -0.022,0.174 -0.069,0.238 -0.189,0.277 -0.158,0.197 -0.011,0.07 0.039,0.106 0.127,0.154 0.216,0.227 0.269,0.183 0.173,0.051 0.055,0.045 0.054,0.212 0.021,0.223 -0.069,0.168 0.138,0.138 0.361,-0.007 0.294,0.059 0.124,-0.059 0.087,0.044 -0.055,0.498 0.04,0.294 0.079,0.083 0.289,0.12 0.556,-0.015 0.329,0.139 0.363,0.159 0.193,0.176 0.087,0.131 -0.024,0.211 -0.199,0.247 -0.323,0.118 -0.189,0.051 -0.932,0.462 -0.291,0.195 -0.226,0.234 -0.083,0.176 -0.044,0.171 0.202,0.62 0.034,0.192 -0.166,0.667 -0.049,0.247 0.063,0.173 0.198,0.064 0.043,0.145 0.019,0.111 -0.344,0.244 -0.364,0.216 -0.115,-0.001 -0.348,0.405 -0.579,0.809 -0.308,0.274 -0.022,0.133 -0.024,0.136 0.117,0.228 0.024,0.193 -0.13,0.193 -0.218,0.223 -0.424,0.193 -0.535,0.199 -0.24,0.12 -0.181,0.52 -0.167,0.521 -0.075,0.193 -0.288,0.599 -0.504,0.88 -0.128,0.192 -0.78,0.423 -0.795,0.46 -0.141,0.174 -0.163,0.418 -0.153,0.458 -0.143,0.239 -0.506,0.536 -0.166,0.411 -0.053,0.268 -0.43,0.15 -0.488,0.143 -0.71,0.046 -0.295,0.075 -0.87,0.369 -0.216,0.016 -0.17,-0.061 -0.128,-0.126 -0.119,-0.21 -0.057,-0.323 -0.168,-0.146 -0.226,-0.125 -0.238,-0.005 -0.24,0.137 -0.207,0.15 -0.142,0.124 -0.138,0.145 -0.267,0.486 -0.431,0.697 -0.481,0.506 -0.178,0.151 -0.111,0.115 -0.151,0.168 -0.087,0.162 -0.119,0.529 -0.069,0.468 0.032,0.105 0.072,0.089 0.263,0.135 0.379,0.226 0.493,0.128 0.415,0.022 0.156,0.096 0.092,0.13 0.026,0.109 -0.022,0.386 -0.047,0.414 -0.153,0.444 0.002,0.254 0.061,0.249 0.461,0.63 0.17,0.065 0.346,0.014 0.161,-0.013 0.179,-0.064 0.127,0.044 0.095,0.077 0.024,0.128 -0.015,0.627 0.142,0.284 0.275,0.386 0.217,0.441 0.205,0.527 0.197,0.412 0.076,0.215 -0.128,0.104 -0.073,0.108 -0.019,0.144 0.027,0.152 -0.017,0.107 0.093,0.132 0.109,0.044 -0.003,0.092 -0.172,0.119 -0.153,-0.004 -0.118,0.058 -0.228,0.25 -0.106,0.05 -0.143,0.023 -0.159,-0.025 -0.226,-0.101 -0.065,-0.159 0.025,-0.167 -0.051,-0.1 -0.162,0.019 -0.561,0.171 -0.535,0.211 -0.093,0.144 -0.124,0.149 -0.245,0.062 -0.362,0.019 -0.249,-0.023 -0.23,-0.161 -0.21,-0.146 -0.325,-0.007 -0.585,0.022 -0.324,-0.002 -0.191,-0.054 -0.188,0.041 -0.235,-0.06 -0.105,0.08 -0.099,0.008 -0.079,-0.138 -0.053,-0.015 -0.062,0.02 -0.055,0.047 -0.032,0.081 -0.011,0.92 -0.386,-0.006 -0.275,-0.002 -0.302,0.05 -0.276,0.07 -0.136,0.084 -0.194,0.131 -0.046,0.184 -0.093,0.134 -0.134,-0.198 -0.086,-0.092 -0.1,0.068 -0.142,-0.008 -0.256,-0.226 -0.114,0.228 -0.423,0.052 -0.053,-0.172 -0.01,-0.16 -0.233,0.116 -0.167,-0.178 -0.075,-0.239 -0.064,-0.066 -0.073,-0.076 -0.176,-0.082 -0.156,-0.254 -0.015,-0.27 -0.044,-0.321 -0.328,-1.192 -0.199,-0.11 -1.117,-0.212 -0.057,-0.209 0.077,-0.562 -0.031,-0.355 -0.362,-0.469 -0.101,-0.328 -0.295,-0.281 -0.293,-0.082 -0.296,0.037 -0.159,0.111 -0.087,0.188 0.632,-0.044 0.142,0.069 0.17,0.123 -0.181,-0.005 -0.21,-0.058 -0.263,0.004 -0.985,0.138 -0.572,0.199 -0.767,-0.059 -0.968,0.196 -0.8,0.011 -0.33,0.381 -0.183,-0.069 -0.14,-0.093 -1.1,-0.299 -0.076,-0.125 -0.184,-0.09 -0.202,0.16 -0.145,0.026 -0.603,-0.133 -0.461,0.101 -0.171,0.172 -0.012,0.267 -0.576,-0.052 -0.326,-0.084 -0.434,0.093 -0.984,-0.123 -0.258,0.03 -0.359,0.178 -0.15,0.138 -0.213,0.054 -0.188,-0.192 -0.14,-0.085 -0.13,0.056 -0.176,0.158 -0.51,0.074 -0.461,-0.021 -0.496,-0.148 0.059,-0.05 0.077,-0.258 0.069,-0.923 0.088,-0.334 -0.026,-0.182 0.018,-0.055 0.195,-0.162 0.047,-0.068 0.074,-0.474 0.082,-0.526 0.091,-0.189 0.076,-0.051 0.615,-0.237 0.105,-0.157 0.317,0.037 0.029,-0.038 0.029,-0.182 0.147,-0.197 0.204,-0.162 0.153,-0.057 0.553,-0.102 0.324,-0.142 0.097,-0.015 0.861,0.036 0.181,-0.054 0.028,-0.05 0.051,-0.538 0.157,-0.084 0.024,-0.045 -0.053,-0.373 0.03,-0.249 0.177,-0.148 -0.011,-0.084 -0.126,-0.177 -0.169,-0.113 -0.082,-0.027 -0.706,0.107 -0.292,-0.035 -0.136,-0.065 -0.029,-0.048 0.028,-0.109 0.005,-0.177 0.102,-0.276 0.031,-0.165 -0.083,-0.957 -0.119,-0.637 0.064,-0.633 -0.013,-0.131 -0.024,-0.03 -0.089,0 -0.43,0.056 -0.366,-0.408 -0.228,-0.161 -0.624,-0.203 -0.274,-0.04 -0.401,-0.176 -0.371,-0.385 -0.378,-0.395 -0.153,-0.253 -0.169,-0.431 -0.478,-0.827 0.004,-0.214 -0.059,-0.131 -0.467,-0.545 -0.331,-0.388 -0.535,-0.628 1.069,0.352 0.833,0.269 1.347,0.434 1.045,0.337 0.289,0.055 3.063,-0.288 1.131,0.218 0.359,0.122 0.054,-0.071 0.152,-0.148 0.264,-0.15 0.358,-0.119 0.357,-0.065 0.512,-0.009 0.348,0.01 0.257,0.036 0.496,-0.021 0.238,-0.058 0.815,-0.238 0.548,-0.16 0.829,-0.249 0.605,-0.183 0.151,-0.097 0.156,-0.174 0.075,-0.157 -0.186,-0.242 -0.024,-0.213 0.122,-0.271 0.066,-0.413 -0.013,-0.589 -0.04,-0.34 0.169,-0.633 0.141,-0.356 0.281,-0.17 0.196,-0.104 0.081,-0.077 0.08,-0.085 0.3,-0.484 0.275,-0.226 0.266,-0.137 0.292,0.018 0.247,0.187 0.48,0.082 0.465,-0.055 0.403,-0.141 0.183,-0.115 0.214,-0.101 -0.012,-0.116 -0.243,-0.1 -0.139,-0.142 -0.054,-0.174 0.136,-0.106 0.318,-0.031 0.778,-0.425 0.317,-0.28 0.086,-0.131 0.15,-0.014 0.296,0.13 0.347,0.043 0.217,-0.13 0.216,-0.029 0.212,0.142 0.114,0.17 0.192,0.202 0.243,0.04 0.293,-0.108 0.308,-0.234 0.292,-0.328 0.259,-0.324 -0.064,-1.03 -0.043,-0.609 0.137,-0.322 0.195,-0.197 0.129,-0.307 -0.003,-0.271 0.137,-0.228 0.136,-0.623 0.185,-0.147 0.382,-0.102 0.608,-0.059 0.477,-0.285 0.48,-0.304 0.064,-0.268 -0.18,-0.286 -0.241,-0.556 -0.217,-0.333 -0.53,-0.598 0.061,-0.369 0.295,-0.151 0.726,0.256 0.202,0.05 0.253,0.036 0.669,-0.006 0.546,-0.1 0.57,-0.228 0.112,-0.238 -0.007,-0.283 0.01,-0.234 0.009,-0.325 -0.205,-0.209 -0.124,-0.187 -0.037,-0.15 0.143,-0.082 0.139,-0.153 0.133,-0.278 0.316,-0.333 0.191,-0.3 0.18,-0.142 0.272,-0.196 0.174,-0.287 0.08,-0.172 0.157,-0.168 0.053,-0.11 -0.043,-0.099 -0.078,-0.124 -0.089,-0.14 0,-0.136 0.074,-0.143 0.081,-0.129 -0.038,-0.181 -0.043,-0.295 -0.148,-0.174 -0.1,-0.403 -0.157,-0.41 -0.084,-0.16 -0.154,-0.202 -0.344,-0.214 -0.099,-0.143 0.134,-0.276 0.225,-0.171 0.423,-0.423 0.231,-0.292 0.209,-0.204 0.27,0.034 0.158,-0.018 0.139,-0.189 0.276,-0.167 0.491,-0.346 0.172,-0.234 0.261,-0.118 0.217,-0.027 0.292,-0.082 0.281,-0.126 0.257,-0.096 0.402,-0.02 0.639,-0.057 0.344,-0.06 0.827,-0.046 0.9,-0.021 0.104,-0.002 0.39,0.124 0.264,0.104 0.104,-0.009 0.437,-0.248 0.664,-0.304 0.309,-0.135 0.166,-0.05 0.257,0.003 0.207,0.08 z" />
    <path 
      id="NP"
      title="Nepal" 
      class="land" 
      d="M722.979,381.675L723.092,381.761L723.104,381.902L723.083,382.058L722.967,382.395L722.861,382.631L722.738,383.13L722.627,383.993L722.651,384.144L722.982,384.637L723.111,385.017L723.124,385.274L722.983,385.707L722.824,386.194L722.746,386.304L722.656,386.343L722.247,386.173L721.966,386.197L721.642,386.291L721.304,386.272L721.024,386.216L720.671,386.412L720.332,386.306L720.115,386.185L719.971,385.846L719.91,385.803L719.197,386.157L719.026,386.179L718.583,385.989L718.221,385.8L718.085,385.744L717.735,385.67L717.421,385.627L717.078,385.51L716.652,385.664L716.48,385.651L716.32,385.54L716.236,385.313L716.215,385.097L716.07,384.949L715.847,384.915L715.532,385.048L715.073,385.224L714.925,385.194L714.789,385.144L714.739,385.097L714.676,384.894L714.603,384.849L714.496,384.842L714.308,384.793L714.074,384.642L713.368,384.285L713.279,384.126L713.282,383.774L713.243,383.629L713.157,383.476L712.794,383.32L712.09,383.07L711.7,382.87L711.514,382.964L711.156,383.047L710.964,383.228L710.734,383.17L710.187,382.98L709.893,382.952L709.716,383.017L709.675,383.125L709.451,383.249L709.238,383.15L708.817,383.018L708.449,382.945L707.89,382.783L707.826,382.539L707.732,382.297L707.6,382.254L707.099,382.302L706.639,382.035L706.146,381.692L705.936,381.58L705.797,381.539L705.678,381.584L705.542,381.663L705.418,381.686L705.15,381.538L704.809,381.328L704.389,381.069L703.897,380.708L703.695,380.503L703.604,380.35L703.499,380.205L703.071,379.968L702.733,379.781L702.325,379.555L702.257,379.51L702.103,379.375L701.866,379.206L701.672,379.156L701.61,379.25L701.563,379.348L701.394,379.325L701.13,379.152L700.854,378.971L700.639,378.803L700.417,378.63L700.363,378.502L700.456,378.107L700.585,377.768L700.694,377.692L700.872,377.467L700.937,377.072L700.934,376.734L701.107,376.257L701.347,375.749L701.76,375.204L701.938,375.023L702.139,374.899L702.52,374.496L702.599,374.43L702.766,374.326L702.93,374.3L703.054,374.35L703.181,374.561L703.335,374.762L703.522,374.752L703.741,374.58L704.195,373.79L704.826,373.628L705.424,373.71L705.953,373.825L706.109,374.089L706.211,374.368L706.277,374.509L706.451,374.675L707.197,375.069L707.63,375.424L708.229,375.9L708.677,376.109L709.074,376.127L709.298,376.313L709.635,376.684L709.92,377.109L710.275,377.502L710.521,377.489L710.856,377.362L711.265,377.195L711.506,377.277L711.729,377.386L711.803,377.589L711.938,377.973L712.086,378.371L712.32,378.51L712.598,378.714L712.751,378.876L713.271,379.174L713.344,379.295L713.449,379.377L713.576,379.429L713.681,379.49L713.845,379.511L714.445,379.333L714.605,379.355L714.697,379.388L714.7,379.453L714.592,379.731L714.5,380.087L714.595,380.265L714.847,380.339L715.403,380.392L716.154,380.387L716.383,380.567L716.609,380.837L716.838,381.298L716.929,381.493L717.042,381.549L717.237,381.472L717.27,381.283L717.278,381.001L717.442,380.904L717.547,380.976L717.669,381.196L717.979,381.394L718.204,381.491L718.418,381.457L718.508,381.381L718.613,380.996L718.782,380.94L718.995,380.965L719.077,381.042L719.163,381.196L719.422,381.269L719.679,381.365L719.92,381.491L720.261,381.776L720.68,381.829L721.167,381.822L721.423,381.829L721.611,381.85L721.78,381.83L722.279,381.626L722.483,381.611L722.736,381.634z"/>   
    <path
       id="IN"
       title="India"
       class="land"
       d="m 739.201,443.582 -0.172,0.231 -0.336,-0.708 -0.144,-0.043 -0.005,-0.337 0.078,-0.133 0.389,-0.149 0.102,0.083 0.198,0.656 -0.11,0.4 z m -0.439,-1.477 -0.267,0.266 -0.116,-0.16 0.048,-0.111 0.113,-0.061 0.106,-0.086 0.116,0.152 z m -0.817,-1.466 -0.218,0.003 -0.064,-0.121 -0.092,-0.125 0.07,-0.121 0.115,-0.031 0.163,0.196 0.038,0.139 -0.012,0.06 z m 0.265,-0.503 -0.132,0.104 -0.033,-0.014 -0.019,-0.08 -0.005,-0.056 -0.024,-0.101 -0.013,-0.178 0.105,-0.149 0.105,0.031 -0.057,0.152 0.073,0.291 z m -57.447,-0.599 -0.04,0.035 -0.041,0.013 -0.028,-0.004 -0.015,-0.035 0.008,-0.026 0.036,0.03 0.048,-0.028 0.054,-0.089 0.013,-0.029 0.011,0.016 -0.011,0.051 -0.035,0.066 z m 56.335,0.055 0.084,0.105 -0.155,-0.018 -0.144,-0.159 0.038,-0.149 0.054,-0.061 0.123,0.282 z m -0.992,-2.502 -0.123,0.016 -0.076,-0.096 -0.009,-0.112 0.07,-0.073 0.066,-0.038 0.066,0.01 0.066,0.189 -0.06,0.104 z m -0.798,-4.013 -0.085,0.097 -0.289,-0.076 0.021,-0.292 -0.068,-0.286 0.05,-0.12 0.217,-0.205 0.176,-0.09 0.122,0.277 0.057,0.271 -0.201,0.424 z m -55.351,-1.839 -0.021,0.018 -0.002,-0.052 0.026,-0.083 0.03,-0.055 0.009,0.006 -0.008,0.054 -0.015,0.073 -0.019,0.039 z m 55.885,-0.509 -0.137,0.057 -0.137,-0.071 0.107,-0.115 0.018,-0.234 0.14,0.13 -0.008,0.148 0.017,0.085 z m 0.91,-1.867 0.125,0.392 -0.226,-0.171 -0.073,-0.123 0.113,-0.083 0.061,-0.015 z m -0.842,-2.364 -0.089,0.186 -0.018,-0.398 0.042,-0.05 0.045,-0.014 0.057,0.037 -0.037,0.239 z m 0.015,3.791 -0.062,0.067 -0.091,-0.075 -0.261,-0.511 -0.045,-0.328 -0.072,-0.114 0.092,-0.163 0.115,-0.054 0.068,-0.184 0.024,-0.28 0.101,-0.229 0.051,-0.064 0.21,-0.002 0.053,-0.029 -0.029,-0.219 -0.122,-0.095 -0.043,-0.061 0.005,-0.525 0.032,-0.212 0.076,-0.153 -0.054,-0.316 0.036,-0.118 0.151,-0.166 0.067,-0.354 -0.062,-0.106 0.144,-0.546 -0.008,-0.366 0.188,-0.366 0.294,-0.167 0.093,-0.004 0.012,0.313 0.028,0.103 -0.17,0.185 0.162,0.241 -0.021,0.087 -0.065,0.191 -0.107,0.188 -0.149,0.077 -0.116,0.25 -0.066,0.094 0.221,0.263 0.071,0.892 -0.162,0.244 -0.193,0.049 0.045,0.594 -0.035,0.133 -0.191,0.291 -0.036,0.127 -0.107,0.12 0.045,0.149 0.093,0.065 0.002,0.122 -0.086,0.313 -0.007,0.357 -0.119,0.292 z m -39.3,-61.555 -0.007,-0.011 -0.165,-0.245 0.172,0.256 -0.092,0.27 0.019,0.214 0.17,0.236 0.138,0.165 -0.135,0.222 -0.08,0.257 0.09,0.115 -0.042,0.369 0.04,0.069 0.095,0.029 0.148,-0.025 0.113,0.18 -0.102,-0.162 -0.012,-0.018 0.154,-0.098 0.131,-0.019 0.078,0.028 0.104,-0.279 0.092,-0.04 0.178,0.077 0.352,0.526 0.298,0.444 0.063,0.061 0.023,0.023 0.053,0.051 0.294,0.23 0.203,0.145 0.277,-0.052 0.366,-0.01 0.217,0.142 0.125,0.099 0.006,0.014 0.017,0.003 0,0 0.44,0.348 0.19,-0.026 0.126,0.1 0.036,0.245 -0.059,0.255 0.014,0.12 0.196,0.023 0.417,0.168 0.368,0.149 0.191,0.047 0.205,0.11 0.182,0.176 0.355,0.226 0.314,0.173 0.069,0.234 -0.124,-0.05 -0.164,0.026 -0.167,0.104 -0.079,0.066 -0.381,0.403 -0.2,0.124 -0.179,0.181 -0.413,0.545 -0.239,0.508 -0.174,0.477 0.003,0.337 -0.064,0.395 -0.178,0.225 -0.109,0.076 -0.129,0.339 -0.093,0.395 0.054,0.128 0.222,0.172 0.216,0.168 0.275,0.182 0.264,0.173 0.17,0.022 0.047,-0.098 0.062,-0.094 0.194,0.05 0.236,0.169 0.154,0.135 0.068,0.045 0.408,0.227 0.338,0.187 0.428,0.237 0.104,0.145 0.092,0.154 0.202,0.204 0.491,0.361 0.42,0.259 0.342,0.21 0.268,0.147 0.124,-0.023 0.136,-0.079 0.119,-0.045 0.139,0.042 0.21,0.112 0.493,0.342 0.46,0.267 0.501,-0.048 0.133,0.043 0.094,0.242 0.063,0.245 0.56,0.162 0.368,0.073 0.421,0.133 0.213,0.099 0.224,-0.124 0.041,-0.109 0.177,-0.064 0.294,0.028 0.548,0.19 0.229,0.057 0.192,-0.18 0.357,-0.083 0.187,-0.094 0.39,0.2 0.704,0.25 0.363,0.156 0.086,0.153 0.039,0.145 -0.003,0.352 0.089,0.159 0.706,0.357 0.233,0.151 0.188,0.049 0.106,0.006 0.073,0.045 0.063,0.203 0.05,0.047 0.136,0.05 0.148,0.029 0.459,-0.176 0.314,-0.133 0.224,0.034 0.145,0.148 0.021,0.216 0.084,0.228 0.16,0.111 0.172,0.012 0.426,-0.154 0.343,0.118 0.314,0.043 0.35,0.074 0.136,0.056 0.362,0.188 0.443,0.19 0.171,-0.021 0.713,-0.354 0.061,0.043 0.145,0.338 0.217,0.121 0.339,0.106 0.354,-0.195 0.279,0.056 0.338,0.018 0.324,-0.094 0.281,-0.024 0.409,0.17 0.09,-0.039 0.078,-0.109 0.159,-0.488 0.141,-0.432 -0.013,-0.258 -0.129,-0.379 -0.331,-0.494 -0.024,-0.15 0.111,-0.863 0.123,-0.499 0.105,-0.236 0.116,-0.337 0.021,-0.156 -0.012,-0.141 -0.113,-0.086 -0.03,-0.107 0.028,-0.09 0.09,-0.05 0.376,-0.063 0.424,-0.135 0.169,-0.072 0.127,-0.072 0.13,-0.114 0.121,0.005 0.38,0.165 0.133,0.104 0.07,0.315 0.057,0.122 -0.05,0.32 -0.228,0.774 0.045,0.289 0.189,0.211 0.165,0.147 -0.027,0.059 -0.34,0.249 -0.061,0.133 0.075,0.13 0.135,0.11 0.061,0.105 0.063,0.326 0.173,0.092 0.342,0.21 0.301,0.153 0.517,-0.102 0.146,0.069 0.254,0.072 0.198,0.022 0.115,0.054 0.064,0.052 -0.009,0.066 0.011,0.068 0.283,0.018 0.149,0.039 0.503,-0.07 0.505,-0.096 0.232,-0.291 0.103,-0.021 0.29,-0.113 0.286,0.124 0.314,0.169 0.17,0.051 0.335,0.027 0.326,-0.019 0.78,-0.081 0.429,0.042 0.394,-0.242 0.081,10e-4 0.173,0.187 0.433,0.017 0.23,-0.09 0.248,-0.069 0.158,-0.022 0.127,-0.002 0.153,0.018 0.145,-0.062 0.066,-0.125 -0.015,-0.189 -0.104,-0.206 -0.091,-0.121 -0.018,-0.064 0.028,-0.149 0.08,-0.21 0.147,-0.24 -0.108,-0.233 -0.151,-0.267 -0.111,-0.026 -0.28,0.062 -0.303,-0.012 -0.239,-0.161 -0.178,-0.202 -0.043,-0.169 0.052,-0.207 0.079,-0.19 0.017,-0.071 0.227,0 0.314,0.042 0.238,0.053 0.191,-0.002 0.347,-0.244 0.158,-0.015 0.182,-0.046 0.079,-0.046 0.055,0.036 0.199,0.03 0.207,-0.012 0.185,-0.067 0.186,-0.105 0.33,-0.22 0.065,-0.126 0,-0.116 -0.062,-0.077 -0.063,-0.037 0.025,-0.101 0.139,-0.17 0.505,-0.256 0.43,-0.316 0.236,-0.237 0.108,-0.287 0.137,-0.312 0.128,-0.123 0.305,-0.078 0.854,-0.115 0.269,-0.126 0.397,-0.234 0.2,-0.184 0.111,-0.149 0.012,-0.166 0.264,-0.052 0.23,-0.269 0.279,-0.271 0.491,-0.229 0.435,-0.308 0.151,0.049 0.158,0.146 0.084,0.161 0.018,0.082 0.556,0.102 0.088,-0.016 0.409,0.144 0.377,0.174 0.208,0.043 0.102,-0.005 0.087,-0.054 0.102,-0.153 0.104,-0.111 0.065,-0.045 -0.003,-0.176 0.546,-0.344 0.49,-0.247 0.422,-0.18 0.124,0.074 0.137,0.137 0.187,0.349 0.113,0.085 0.286,-0.049 0.053,0.039 -0.045,0.125 -0.194,0.155 -0.252,0.139 -0.164,0.114 0.054,0.379 -0.013,0.13 0.071,0.041 0.518,-0.376 0.249,-0.074 0.089,0.091 0.027,0.201 0.205,0.414 0.087,0.21 -0.521,0.5 -0.191,0.258 0.007,0.091 -0.01,0.09 -0.133,0.128 0.007,0.051 0.107,0.081 0.131,0.061 0.063,-0.002 0.108,-0.121 0.491,-0.171 0.141,0.032 0.346,0.262 0.16,0.015 0.415,0.078 0.266,-0.099 0.195,0.091 0.405,0.328 0.093,0.06 -0.034,0.199 -0.021,0.219 0.103,0.174 0.012,0.154 -0.023,0.141 -0.081,0.097 -0.225,0.054 -0.191,0.168 -0.304,0.243 -0.244,0.194 -0.177,0.172 -0.064,0.18 0.02,0.227 0.051,0.237 0.566,0.868 -0.005,0.15 -0.179,0.042 -0.238,-0.098 -0.205,-0.14 -0.231,-0.372 -0.186,-0.111 -0.185,-0.024 -1.1,0.191 -0.233,0.054 -0.363,0.139 -0.254,0.279 -0.185,0.255 -0.19,0.103 -0.278,0.198 -0.771,0.608 -0.445,0.262 -0.291,0.096 -0.204,0.138 -0.11,0.224 -0.083,0.161 -0.024,0.395 0.051,0.486 0.11,0.31 0.059,0.065 0.009,0.091 -0.111,0.167 -0.146,0.143 -0.071,0.088 -0.065,0.442 -0.129,0.217 -0.238,0.319 -0.211,0.241 -0.331,0.187 -0.126,0.151 -0.121,0.279 -0.071,0.236 -0.004,0.085 0.038,0.075 0.138,0.083 0.167,0.08 0.08,0.125 0.011,0.151 -0.124,0.363 -0.223,0.503 -0.255,0.398 -0.263,0.379 -0.063,0.124 -0.236,0.465 -0.206,0.639 -0.139,0.429 -0.12,0.294 -0.148,0.013 -0.179,-0.094 -0.437,-0.125 -0.279,-0.101 -0.203,-0.091 -0.141,0.004 -0.194,0.059 -0.197,0.041 -0.117,-0.044 -0.271,-0.265 -0.083,0.03 -0.053,0.129 0.183,0.756 0.119,0.281 -0.02,0.469 -0.047,0.575 -0.07,0.627 -0.047,0.145 -0.116,0.166 -0.153,0.045 -0.139,-0.065 -0.111,0.015 -0.037,0.105 0.032,0.271 -0.136,0.31 -0.1,0.265 0.026,0.257 0.048,0.261 0.159,0.564 10e-4,0.206 -0.031,0.185 -0.083,0.077 -0.143,-0.013 -0.078,0.076 -0.059,0.116 -0.161,0.427 -0.154,0.045 -0.155,-0.064 -0.232,-0.285 -0.142,-0.083 -0.09,0.005 -0.04,0.075 -0.063,0.17 -0.063,0.114 -0.155,0.1 -0.038,-0.21 -0.083,-1.092 -0.063,-0.348 -0.051,-0.483 -0.075,-0.148 -0.096,-0.265 -0.106,-0.229 -0.089,-0.097 -0.057,-0.427 -0.021,-0.523 10e-4,-0.248 -0.125,-0.513 -0.122,-0.582 -0.165,0.024 -0.098,-0.141 -0.071,0.003 -0.232,0.131 -0.185,-0.043 -0.137,0.018 -10e-4,0.268 0.023,0.285 -0.052,0.103 -0.362,0.334 -0.101,0.224 0.01,0.235 0.045,0.314 -0.064,0.16 -0.157,0.147 -0.211,0.077 -0.186,-0.036 -0.119,-0.128 -0.111,-0.326 -0.099,-0.178 -0.104,-0.042 -0.081,0.048 -0.011,0.205 0.006,0.169 -0.026,0.019 -0.058,-0.026 -0.066,-0.083 -0.173,-0.818 -0.247,-0.631 -0.015,-0.242 0.09,-0.312 0.111,-0.481 0.293,-0.3 0.038,-0.127 0.048,-0.101 0.071,-0.02 0.376,0.028 0.126,-0.048 0.111,-0.142 0.162,-0.114 0.162,-0.046 0.129,-0.017 0.207,0.108 0.086,-0.062 0.063,-0.2 0.09,-0.198 0.058,-0.096 0.139,-0.043 0.177,-0.01 0.059,-0.037 0.048,-0.067 0.044,-0.263 0.226,-0.589 0.08,-0.262 0.012,-0.046 -0.007,-0.292 0.064,-0.042 0.375,0.143 0.164,-0.002 0.089,-0.059 0.029,-0.107 -0.048,-0.125 -0.267,-0.219 -0.474,-0.295 -0.435,-0.181 -0.804,0.027 -0.796,0.057 -0.233,-0.029 -0.291,-0.082 -0.715,0.012 -0.864,0.045 -0.329,-0.025 -0.162,0.003 -0.325,0.027 -0.53,-0.084 -0.367,-0.108 -0.325,-0.119 -0.386,-0.107 -0.093,10e-4 -0.054,-0.039 -0.037,-0.095 -0.013,-0.123 0.08,-0.57 -0.071,-0.866 0.065,-0.316 -0.316,-0.712 -0.108,-0.132 -0.146,-0.006 -0.093,0.092 -0.037,0.167 0.053,0.187 -0.116,0.208 -0.233,0.067 -0.272,-0.07 -0.226,-0.098 -0.291,-0.212 -0.219,-0.299 -0.019,-0.331 -0.099,-0.213 -0.135,-0.104 -0.099,-0.029 -0.089,0.023 -0.078,0.116 0.068,0.115 0.093,0.162 -0.031,0.11 -0.083,0.017 -0.124,-0.047 -0.192,0.025 -0.186,-0.084 -0.111,-0.007 -0.11,-0.031 -0.007,-0.191 -0.169,-0.242 -0.286,-0.271 -0.281,-0.168 -0.135,0.023 -0.068,0.185 0.016,0.069 0.099,0.034 0.142,0.107 0.03,0.112 -0.021,0.098 -0.175,0.179 -0.124,0.17 -0.277,0.247 -0.236,0.283 -0.062,0.214 -0.089,0.192 -0.035,0.211 0.062,0.146 0.114,0.092 0.296,0.067 0.31,0.284 0.25,0.383 0.141,0.116 0.256,0.129 0.493,0.015 0.073,0.105 0.07,0.281 0.097,0.099 0.251,0.132 0.021,0.097 -0.061,0.112 -0.111,0.088 -0.205,0.056 -0.195,0.022 -0.196,-0.036 -0.291,-0.022 -0.33,-0.002 -0.234,0.699 -0.167,0.245 -0.095,0 -0.255,-0.119 -0.109,0.019 -0.294,0.62 -0.041,0.149 -0.02,0.112 0.156,0.239 0.187,0.197 0.223,0.077 0.175,-0.059 0.142,0.079 0.166,0.198 0.285,0.131 0.403,0.063 0.229,0.156 0.028,0.135 -0.02,0.137 -0.036,0.356 -0.039,0.205 -0.217,0.538 -0.155,0.463 0.08,0.22 0.058,0.09 0.055,0.069 0.174,0.173 0.121,0.171 -0.104,0.437 0.057,0.115 0.233,0.077 0.251,0.059 0.088,0.072 -0.218,0.443 0.046,0.308 0.092,0.289 0.066,0.472 0.01,0.05 -0.018,0.118 0.143,0.366 0.221,0.713 0.017,0.266 -0.013,0.281 -0.065,0.469 -0.221,-0.002 0.197,0.313 0.063,0.225 0.027,0.314 -0.237,0.039 -0.168,-0.035 -0.14,-0.275 -0.065,0.25 -0.25,0.231 -0.09,-0.113 -0.052,-0.121 -0.01,-0.214 0.138,-0.817 -0.028,-0.092 -0.062,-0.061 -0.137,-0.033 -0.051,-0.166 -0.209,0.872 0.092,0.356 -0.042,0.162 -0.39,0.136 -0.395,-0.327 -0.05,-0.105 -0.023,0.184 -0.071,0.224 -0.37,-0.041 -0.183,-0.175 0.119,-0.298 0.229,-0.72 0.043,-0.321 -0.307,-0.236 -0.26,-0.145 -0.149,-0.328 0.057,0.36 0.139,0.128 0.202,0.09 0.214,0.184 -0.154,0.224 -0.15,0.139 -0.287,0.528 -0.35,0.295 -0.408,0.222 -1.34,0.326 -0.281,0.132 -0.411,0.406 -0.266,0.385 -0.049,0.39 0.15,0.421 0.122,0.658 0.102,0.134 -0.143,0.24 -0.249,0.255 -0.206,0.343 0.019,0.188 -0.053,0.127 -0.706,0.421 -0.148,0.246 -0.194,0.244 -0.232,-0.14 -0.136,0.002 0.187,0.194 -0.024,0.128 -0.066,0.075 -0.178,0.07 -1.02,0.309 -0.78,0.293 -0.219,-0.012 0.04,-0.089 0.137,-0.079 -0.014,-0.336 -0.143,-0.062 -0.124,-0.024 -0.594,0.41 -0.24,0.405 0.05,0.077 0.135,-0.019 0.399,-0.229 0.186,0.065 0.013,0.09 -0.606,0.35 -1.275,1.132 -0.06,0.223 -0.166,0.252 -0.229,0.237 -0.411,0.573 -0.788,0.851 -0.219,0.317 -1.262,0.654 -0.23,0.194 -0.518,0.636 -0.532,0.52 -0.621,0.431 -1.077,0.549 -0.655,0.519 -0.205,0.345 -0.013,0.123 0.07,0.167 0.12,0.156 0.027,0.124 -0.059,0.222 -0.032,0.123 -0.192,0.304 -0.329,0.217 -1.065,0.453 -0.141,-0.014 -0.869,-0.09 -0.325,0.082 -0.134,0.212 -0.299,0.877 -0.286,0.233 -0.103,0.211 -0.041,0.146 -0.172,-0.004 -0.148,-0.065 -0.108,0.047 -0.124,-0.294 -0.208,-0.06 -0.172,-0.021 -0.734,0.296 -0.257,0.238 -0.54,1.121 -0.134,0.722 0.127,0.796 0.188,0.635 0.037,0.287 -0.023,0.372 -0.096,0.181 -0.068,0.214 0.09,0.441 0.227,0.577 0.055,0.244 0.005,0.251 0.171,0.576 -0.115,-0.104 -0.091,-0.243 -0.216,-0.31 -0.265,0.309 0.146,0.222 0.494,0.264 0.146,0.216 -0.318,1.921 -0.241,0.681 -0.296,0.446 -0.157,0.172 -0.351,0.708 -0.244,0.851 -0.049,0.327 0.11,0.366 -0.125,0.216 -0.156,0.165 0.297,-0.074 0.102,0.198 0.038,0.205 0.004,1.216 -0.033,1.266 -0.229,0.052 -0.251,0.013 -0.222,-0.036 -0.159,-0.049 -0.396,0.067 -0.213,0.14 -0.171,0.232 0.012,0.396 -0.734,0.996 -0.158,0.332 -0.058,0.319 0.095,0.167 0.188,0.171 0.245,0.069 0.473,0.069 0.227,0.091 0.154,0.169 -0.557,-0.18 -0.655,-0.036 -1.566,0.462 -0.412,0.324 -0.23,0.281 -0.158,0.642 -0.027,0.429 -0.186,0.357 -0.813,0.548 -0.514,0.169 -0.195,0.146 -0.606,-0.189 -0.661,-0.48 -0.278,-0.258 -0.981,-1.24 -0.179,-0.157 -0.198,-0.531 -0.031,-0.198 -0.055,-0.079 -0.093,-0.054 -0.045,-0.082 -0.221,-0.608 -0.09,-0.634 -0.141,-0.709 0.118,0.049 0.164,0.233 0.082,0.339 0.01,0.474 0.123,0.055 0.11,-0.045 -0.315,-1.092 -0.274,-0.271 -0.072,-0.018 -0.077,-0.175 -0.008,-0.22 0.024,-0.104 -0.219,-0.358 -0.077,-0.213 -0.486,-1.083 -0.219,-0.777 -0.339,-0.865 -0.219,-0.303 -0.341,-0.668 -0.286,-0.311 -0.303,-0.417 -0.238,-0.185 -0.093,-0.097 -0.705,-1.447 -0.217,-0.801 -0.184,-0.378 -0.091,-0.288 -0.247,-1.231 -0.002,-0.22 -0.03,-0.241 -0.176,-0.522 -0.309,-0.565 -0.089,-0.352 10e-4,-0.137 -0.196,-0.55 -0.042,-0.251 -0.132,-0.232 -0.154,-0.213 -0.16,-0.171 -0.377,-0.558 -0.135,-0.136 -0.257,-0.362 -0.183,-0.669 -0.234,-0.262 0.368,0 -0.225,-0.248 -0.106,-0.162 -0.118,-0.1 0.171,-0.25 -0.28,0.007 -0.148,-0.15 -0.203,-0.47 -0.369,-0.532 -0.063,-0.284 -0.326,-0.895 -0.276,-2.153 -0.253,-0.961 0.02,-0.276 -0.306,-0.834 -0.149,-0.56 -0.061,-0.475 -0.081,-0.312 -0.073,-0.62 -0.117,-0.196 -0.013,-0.118 0.078,-0.283 0.219,-0.437 0.081,-0.277 -0.095,-0.39 -0.199,0.41 -0.186,0.115 -0.089,-0.306 -10e-4,-0.412 -0.023,-0.099 0.049,-0.138 0.492,0.063 -0.56,-0.253 -0.066,-0.148 -0.021,-0.111 0.12,-0.205 -0.204,-0.173 -0.082,-0.53 -0.06,-0.121 -0.023,-0.098 0.116,-0.733 0.482,-1.443 0.036,-0.327 -0.042,-0.465 -0.107,-0.37 -0.046,-0.392 -0.029,-0.101 -0.175,-0.036 -0.166,-0.145 -0.192,-0.582 0.176,-0.191 0.136,-0.105 -0.187,0.044 -0.154,-0.018 0.292,-0.269 0.261,-0.206 0.595,-0.239 0.253,-0.153 -0.374,0.138 -0.392,0.052 -0.832,-0.028 0.139,-0.544 0.145,-0.182 0.157,-0.102 -0.231,0.031 -0.268,-0.043 0.086,-0.553 0.211,-0.12 0.227,-0.023 0.282,-0.079 -0.302,-0.091 -0.313,-0.044 -0.377,0.091 -0.346,-0.067 -0.421,10e-4 0.168,0.074 0.18,0.168 -0.09,0.3 -0.085,0.187 -0.231,0.129 -0.189,0.195 -0.053,0.171 -0.107,0.12 0.185,0.085 0.19,0.061 0.11,0.139 0.13,0.201 -0.007,0.391 -0.498,0.919 -0.172,0.205 -1.247,0.554 -0.489,0.301 -1.044,0.391 -0.406,0.073 -0.45,-0.078 -0.658,-0.297 -1.004,-0.761 -0.261,-0.251 -0.803,-0.979 -0.579,-0.519 -0.439,-0.483 -0.544,-0.458 -0.513,-0.618 -0.109,-0.282 0.038,-0.287 0.191,-0.156 0.224,0.063 0.177,0.242 0.125,0.108 0.105,0.044 0.766,-0.371 0.297,0.015 0.203,-0.186 0.257,0.041 0.524,-0.29 0.22,-0.018 0.262,-0.058 0.422,-0.735 0.316,-0.468 0.205,-0.098 -0.012,-0.114 -0.057,-0.149 -0.153,0.038 -0.107,0.142 -0.079,0.172 -0.08,0.103 -0.248,-0.095 -0.167,0.016 -0.206,0.056 -0.753,0.274 -0.31,0.246 -0.21,0.049 -1.203,-0.271 -1.176,-0.622 -0.495,-0.414 -0.313,-0.529 -0.313,-0.631 0.103,-0.177 0.486,-0.38 0.42,-0.299 -0.377,0.133 -0.408,0.185 -0.202,0.129 -0.229,0.271 -0.304,0.061 -0.12,-0.402 -0.076,-0.392 0.194,-0.132 0.136,-0.083 0.276,-0.07 0.302,-0.05 0.274,0.002 0.387,0.006 0.011,-0.92 0.032,-0.081 0.055,-0.047 0.063,-0.02 0.053,0.014 0.079,0.138 0.099,-0.008 0.105,-0.08 0.234,0.06 0.188,-0.041 0.19,0.054 0.324,10e-4 0.585,-0.022 0.325,0.007 0.21,0.146 0.23,0.161 0.249,0.023 0.361,-0.019 0.245,-0.062 0.124,-0.15 0.093,-0.144 0.535,-0.21 0.562,-0.171 0.162,-0.019 0.051,0.1 -0.025,0.167 0.065,0.159 0.226,0.101 0.159,0.025 0.143,-0.023 0.106,-0.051 0.228,-0.25 0.118,-0.057 0.153,0.004 0.172,-0.12 0.003,-0.092 -0.109,-0.044 -0.093,-0.132 0.018,-0.107 -0.027,-0.152 0.019,-0.144 0.073,-0.108 0.128,-0.104 -0.076,-0.215 -0.196,-0.412 -0.205,-0.528 -0.217,-0.44 -0.275,-0.386 -0.142,-0.284 0.015,-0.627 -0.024,-0.127 -0.095,-0.078 -0.127,-0.043 -0.179,0.064 -0.161,0.012 -0.346,-0.014 -0.17,-0.064 -0.462,-0.631 -0.061,-0.248 -0.002,-0.255 0.153,-0.444 0.047,-0.414 0.021,-0.386 -0.025,-0.109 -0.093,-0.13 -0.155,-0.096 -0.415,-0.023 -0.493,-0.128 -0.379,-0.225 -0.264,-0.136 -0.071,-0.089 -0.032,-0.104 0.069,-0.469 0.119,-0.529 0.087,-0.162 0.15,-0.168 0.111,-0.114 0.178,-0.151 0.481,-0.506 0.431,-0.697 0.267,-0.487 0.139,-0.145 0.142,-0.124 0.207,-0.15 0.24,-0.137 0.238,0.006 0.226,0.125 0.168,0.146 0.057,0.323 0.119,0.209 0.128,0.126 0.17,0.061 0.217,-0.015 0.869,-0.37 0.296,-0.075 0.71,-0.046 0.487,-0.143 0.431,-0.15 0.053,-0.269 0.166,-0.411 0.506,-0.536 0.143,-0.239 0.153,-0.458 0.163,-0.418 0.141,-0.174 0.796,-0.46 0.779,-0.423 0.128,-0.192 0.504,-0.88 0.288,-0.599 0.075,-0.193 0.167,-0.521 0.181,-0.52 0.24,-0.121 0.535,-0.198 0.424,-0.194 0.218,-0.222 0.131,-0.194 -0.024,-0.192 -0.117,-0.228 0.024,-0.136 0.021,-0.134 0.309,-0.273 0.579,-0.809 0.348,-0.405 0.115,0 0.363,-0.216 0.345,-0.244 -0.02,-0.111 -0.043,-0.144 -0.198,-0.064 -0.063,-0.173 0.049,-0.248 0.166,-0.667 -0.034,-0.192 -0.202,-0.62 0.045,-0.171 0.083,-0.176 0.226,-0.234 0.291,-0.195 0.932,-0.462 0.189,-0.051 0.323,-0.117 0.198,-0.247 0.024,-0.211 -0.087,-0.131 -0.193,-0.176 -0.363,-0.159 -0.328,-0.139 -0.557,0.015 -0.289,-0.119 -0.079,-0.083 -0.04,-0.294 0.056,-0.498 -0.087,-0.044 -0.124,0.059 -0.294,-0.059 -0.361,0.007 -0.138,-0.139 0.068,-0.167 -0.021,-0.223 -0.054,-0.212 -0.056,-0.044 -0.173,-0.051 -0.269,-0.184 -0.217,-0.227 -0.127,-0.154 -0.039,-0.106 0.012,-0.07 0.158,-0.197 0.188,-0.277 0.069,-0.238 0.021,-0.173 -0.053,-0.127 -0.173,-0.156 -0.185,-0.137 -0.074,-0.119 -0.003,-0.18 0.069,-0.225 0.217,-0.17 0.385,-0.161 0.1,-0.2 -0.013,-0.148 -0.105,-0.044 -0.271,-10e-4 -0.456,-0.051 -0.077,-0.082 -0.052,-0.11 -10e-4,-0.109 0.097,-0.124 0.116,-0.157 -0.021,-0.153 -0.134,-0.173 -0.321,-0.126 -0.044,-0.179 0.05,-0.149 0.106,-0.213 0.093,-0.148 0.219,-0.422 0.266,-0.092 0.326,-0.137 0.36,-0.151 0.555,0.113 0.27,0.056 0.546,0.129 0.458,0.108 0.468,0.031 0.194,-0.008 0.214,0.128 0.529,0.219 0.43,0.115 0.291,-0.001 0.429,-0.194 0.214,-0.178 0.288,-0.195 0.369,0.008 0.798,-0.301 0.149,0.052 0.237,0.017 0.286,-0.174 0.147,-0.206 0.023,-0.104 0.071,-0.076 0.306,-0.131 0.307,-0.182 0.083,-0.24 0.051,-0.163 0.336,-0.21 0.35,-0.219 0.366,-0.229 0.416,-0.261 0.352,-0.221 0.288,-0.181 0.032,0.039 0.113,0.082 0.122,0.04 0.143,-0.077 0.179,-0.064 0.094,0.036 0.013,0.104 -0.107,0.488 0.009,0.191 0.179,0.397 0.232,0.643 0.218,0.602 0.128,0.394 0.127,0.161 0.529,0.165 0.436,0.135 0.259,0.221 0.286,0.212 0.2,0.13 0.095,0.167 0.02,0.15 -0.018,0.101 -0.109,0.133 -0.502,0.342 -0.06,0.108 -0.015,0.142 0.099,0.423 0.062,0.265 0.018,0.532 0.033,0.505 0.178,0.23 0.146,0.148 0.089,0.134 0.18,0.185 0.151,0.137 0.129,0.081 0.063,0.181 -0.037,0.213 -0.054,0.185 0.017,0.1 0.104,0.071 0.159,0.185 0.021,0.27 -0.011,0.186 0.063,0.167 0.017,0.185 -0.049,0.461 0.008,0.208 -0.139,0.013 -0.119,0.071 -0.169,0.29 -0.195,0.076 -0.221,0.023 -0.228,-0.178 -0.187,-0.186 -0.051,-0.103 -0.047,-0.196 -0.101,-0.128 -0.194,0.06 -0.295,0.027 -0.319,0.043 -0.059,0.043 -0.006,0.083 0.078,0.176 0.066,0.229 0.04,0.32 0.086,0.212 0.027,0.067 0.511,0.636 0.134,0.129 0.028,0.085 -0.053,0.235 z" />
    <path 
      id="BD"
      title="Bangladesh"
      class="land"
      d="M735.51,399.821l0.022,0.114l0.004,0.996l0.025,0.425l0.09,0.35l0.018,0.133l-0.089,0.108l-0.088,0.021l-0.083,-0.169l-0.188,-0.129l-0.278,-0.138l-0.118,-0.092l-0.143,0.037l-0.201,0.209l-0.08,0.194l0.035,0.272l0.063,0.268l0.14,0.153l0.011,0.169l0.05,0.219l0.072,0.2l0.034,0.217l-0.046,0.004l-0.167,-0.278l-0.15,-0.301l-0.389,-0.57l-0.127,-1.022l-0.008,-0.506l-0.267,-0.596l-0.177,-0.826l-0.071,-0.215l0.093,-0.268l0.016,-0.1l-0.05,0.022l-0.136,0.138l-0.177,-0.33l-0.116,-0.296l-0.458,-0.613l-0.133,-0.271l-0.006,-0.265l-0.198,0.266l-0.269,0.187l-0.274,0.281l-0.182,0.085l-0.577,0.052l-0.334,-0.376l-0.479,-0.921l-0.063,-0.208l0.063,-0.543l-0.114,-0.515l0.002,-0.271l-0.034,-0.182l-0.086,0.04l-0.033,0.125l0.019,0.191l-0.035,0.16l-0.414,-0.031l-0.39,-0.073l0.343,0.271l0.369,0.063l0.19,0.242l0.023,0.189l-0.012,0.213l-0.188,0.149l-0.173,0.094l0.031,0.204l0.21,0.248l-0.254,0.07l-0.069,0.162l-0.006,0.231l0.128,0.204l0.051,0.151l-0.031,0.139l0.124,0.149l0.18,0.313l0.058,0.222l-0.075,0.313l-0.103,0.122l-0.165,0.118l-0.388,0.394l-0.19,0.448l-0.161,0.209l-0.202,0.039l-0.078,-0.092l-0.167,-0.12l-0.004,-0.219l0.051,-0.173l0.341,-0.419l-0.186,0.056l-0.21,0.12l-0.32,0.227l-0.102,-0.281l-0.067,-0.26l-0.001,-0.319l0.257,-0.477l-0.291,0.238l-0.08,0.297l0.036,0.35l-0.038,0.248l-0.113,0.323l-0.155,0.194l-0.25,0.125l-0.11,0.191l-0.168,0.14l-0.005,-0.28l-0.054,-0.37l-0.181,-0.879l-0.039,0.189l0.094,0.545l-0.006,0.354l-0.137,0.28l-0.275,0.3l-0.211,0.042l-0.124,-0.046l-0.188,-0.186l-0.206,-0.266l-0.034,-0.428l-0.085,-0.235l0.013,-0.281l-0.017,-0.266l-0.221,-0.713l-0.143,-0.366l0.018,-0.118l-0.01,-0.05l-0.066,-0.472l-0.092,-0.289l-0.046,-0.308l0.218,-0.443l-0.088,-0.072l-0.251,-0.059l-0.233,-0.077l-0.057,-0.115l0.104,-0.437l-0.121,-0.171l-0.174,-0.173l-0.055,-0.069l-0.058,-0.09l-0.08,-0.22l0.155,-0.463l0.217,-0.538l0.039,-0.205l0.036,-0.356l0.02,-0.137l-0.028,-0.135l-0.229,-0.156l-0.403,-0.063l-0.285,-0.131l-0.166,-0.198l-0.142,-0.079l-0.175,0.059l-0.223,-0.077l-0.187,-0.197l-0.156,-0.239l0.02,-0.112l0.041,-0.149l0.294,-0.62l0.109,-0.019l0.255,0.119h0.095l0.167,-0.245l0.234,-0.699l0.33,0.002l0.291,0.022l0.196,0.036l0.195,-0.022l0.205,-0.056l0.111,-0.088l0.061,-0.112l-0.021,-0.097l-0.251,-0.132l-0.097,-0.099l-0.07,-0.281l-0.073,-0.105l-0.493,-0.015l-0.256,-0.129l-0.141,-0.116l-0.25,-0.383l-0.31,-0.284l-0.296,-0.067l-0.114,-0.092l-0.062,-0.146l0.035,-0.211l0.089,-0.192l0.062,-0.214l0.236,-0.283l0.277,-0.247l0.124,-0.17l0.175,-0.179l0.021,-0.098l-0.03,-0.112l-0.142,-0.107l-0.099,-0.034l-0.016,-0.069l0.068,-0.185l0.135,-0.023l0.281,0.168l0.286,0.271l0.169,0.242l0.007,0.191l0.11,0.031l0.111,0.007l0.186,0.084l0.192,-0.025l0.124,0.047l0.083,-0.017l0.031,-0.11l-0.093,-0.162l-0.068,-0.115l0.078,-0.116l0.089,-0.023l0.099,0.029l0.135,0.104l0.099,0.213l0.019,0.331l0.219,0.299l0.289,0.212l0.226,0.098l0.272,0.07l0.233,-0.067l0.116,-0.208l-0.053,-0.187l0.037,-0.167l0.093,-0.092l0.146,0.006l0.108,0.132l0.317,0.714l-0.065,0.316l0.071,0.866l-0.08,0.57l0.013,0.123l0.037,0.095l0.054,0.039l0.093,-0.001l0.386,0.107l0.325,0.119l0.367,0.108l0.53,0.084l0.325,-0.027l0.162,-0.003l0.329,0.025l0.864,-0.045l0.715,-0.012l0.291,0.082l0.233,0.029l0.796,-0.057l0.804,-0.027l0.435,0.181l0.474,0.295l0.267,0.219l0.048,0.125l-0.029,0.107l-0.089,0.059l-0.164,0.002l-0.375,-0.143l-0.064,0.042l0.007,0.292l-0.012,0.046l-0.08,0.262l-0.226,0.589l-0.044,0.263l-0.048,0.067l-0.059,0.037l-0.177,0.01l-0.139,0.043l-0.058,0.096l-0.09,0.198l-0.063,0.2l-0.086,0.062l-0.207,-0.108l-0.129,0.017l-0.162,0.046l-0.162,0.114l-0.111,0.142l-0.126,0.048l-0.376,-0.028l-0.071,0.02l-0.048,0.101l-0.038,0.127l-0.293,0.3l-0.111,0.481l-0.09,0.312l0.015,0.242l0.247,0.631l0.173,0.818l0.066,0.083l0.058,0.026l0.026,-0.019l-0.006,-0.169l0.011,-0.205l0.081,-0.048l0.104,0.042l0.099,0.178l0.111,0.326l0.119,0.128l0.186,0.036l0.211,-0.077l0.157,-0.147l0.064,-0.16l-0.045,-0.314l-0.01,-0.235l0.101,-0.224l0.362,-0.334l0.052,-0.103l-0.023,-0.285l0.001,-0.268l0.137,-0.018l0.185,0.043l0.232,-0.131l0.071,-0.003l0.098,0.141l0.165,-0.024l0.122,0.582l0.125,0.513L734.833,396l0.021,0.524l0.057,0.427l0.089,0.097l0.104,0.228l0.096,0.265l0.075,0.148l0.051,0.483l0.063,0.348l0.083,1.092L735.51,399.821zM730.085,396.847l0.05,0.13l-0.156,-0.078l-0.117,-0.09l-0.072,-0.12l0.122,-0.063L730.085,396.847zM730.466,399.486l-0.488,0.106l-0.249,-0.033l0.465,-0.791l-0.016,-0.354l-0.072,-0.289l-0.236,-0.232l-0.013,-0.166l-0.106,-0.227l-0.055,-0.266l0.262,-0.085l0.213,0.152l0.03,0.084l0.046,0.217l0.105,0.226l0.368,0.465l-0.007,0.285l-0.101,0.695L730.466,399.486zM732.652,398.604l-0.13,0.089l-0.122,-0.077l-0.156,-0.294l0.077,-0.372l0.049,-0.053l0.078,0.121l0.109,0.259l0.071,0.197L732.652,398.604zM731.513,399.228l-0.297,0.211l0.097,-1.25l0.222,0.466l0.056,0.249L731.513,399.228zM733.542,400.26l-0.102,0.246l-0.05,-0.179l0.043,-0.227l0.044,-0.125l0.029,0.001l0.06,0.129L733.542,400.26zM733.754,401.233l-0.169,0.014l-0.083,-0.089l0.039,-0.125l-0.046,-0.403l0.143,-0.042l0.073,0.002l0.041,0.119l0.038,0.218L733.754,401.233z"
    />
  <path
    id="LK"
    title="Sri Lanka"
    class="land"
    d="M700.169,435.179l0.27,0.015l0.288,-0.007l0.201,0.039l0.346,0.436l0.94,0.78l0.513,0.792l0.046,0.173l0.071,0.15l0.123,0.041l0.104,0.068l0.511,0.764l0.06,0.151l-0.009,0.167l0.03,0.124l0.134,0.062l0.166,0.032l0.109,0.115l0.139,0.609v0.19l0.039,0.081l0.644,0.947l0.037,0.115l-0.007,0.086l0.019,0.075l0.125,0.167l0.194,0.451l0.1,0.103l0.118,0.394l0.008,0.753l-0.044,0.334l-0.12,0.408l-0.143,0.398l-0.154,0.288l-0.211,0.243l-0.723,0.517l-0.207,0.104l-0.94,0.324l-0.693,0.306l-0.641,0.083l-0.642,-0.169l-0.482,-0.402l-0.247,-0.593l-0.17,-0.618l-0.245,-0.687l-0.189,-2.124l-0.09,-0.594l-0.146,-0.758l0.015,-0.329l0.104,-0.315l-0.001,0.691l0.096,0.086l0.071,-0.089l0.064,-0.716l0.053,-0.303l0.256,-0.79l0.005,-0.14l-0.044,-0.297l0.002,-0.149l0.382,-0.554l0.098,-0.323l0.053,-0.33l-0.021,-0.357l-0.068,-0.352l0.308,0.112l0.17,0.123l0.173,0.083l0.14,-0.042l0.17,-0.001l-0.121,-0.191l-0.358,-0.177l-0.595,-0.109l-0.186,-0.14l-0.071,-0.122l0.036,-0.142L700.169,435.179zM700.133,435.694l-0.176,0.031l-0.139,-0.188l-0.033,-0.08l0.037,-0.056l0.038,-0.028l0.045,0.009l0.066,0.175L700.133,435.694zM699.867,437.333l0.081,0.213l-0.231,-0.146l-0.152,-0.122l-0.055,-0.098l0.315,0.11L699.867,437.333z"
  />
  </g>
</svg>
